<svg xmlns="http://www.w3.org/2000/svg" xmlns:xlink="http://www.w3.org/1999/xlink" width="553" zoomAndPan="magnify" viewBox="0 0 414.75 106.499997" height="142" preserveAspectRatio="xMidYMid meet" version="1.0"><defs><g/></defs><g fill="#e4e2dd" fill-opacity="1"><g transform="translate(91.394385, 68.273917)"><g><path d="M 4.796875 -27.34375 L 4.796875 -33.15625 C 4.828125 -37.25 5.785156 -40.519531 7.671875 -42.96875 C 9.554688 -45.425781 12.171875 -46.65625 15.515625 -46.65625 C 16.929688 -46.65625 18.285156 -46.445312 19.578125 -46.03125 C 20.878906 -45.625 21.816406 -45.207031 22.390625 -44.78125 L 23.296875 -44.203125 L 20 -37.53125 C 19.144531 -38.03125 18.203125 -38.28125 17.171875 -38.28125 C 15.992188 -38.28125 15.207031 -37.878906 14.8125 -37.078125 C 14.425781 -36.273438 14.234375 -34.878906 14.234375 -32.890625 L 14.234375 -27.34375 L 20.53125 -27.34375 L 20.53125 -20.15625 L 14.234375 -20.15625 L 14.234375 0 L 4.796875 0 L 4.796875 -20.15625 L 0.859375 -20.15625 L 0.859375 -27.34375 Z M 4.796875 -27.34375 "/></g></g></g><g fill="#e4e2dd" fill-opacity="1"><g transform="translate(106.85104, 68.273917)"><g><path d="M 5.0625 -3.390625 C 2.5 -6.179688 1.21875 -9.597656 1.21875 -13.640625 C 1.21875 -17.691406 2.5 -21.125 5.0625 -23.9375 C 7.625 -26.75 10.878906 -28.15625 14.828125 -28.15625 C 18.453125 -28.15625 21.4375 -27.015625 23.78125 -24.734375 L 23.78125 -27.34375 L 33.21875 -27.34375 L 33.21875 0 L 23.890625 0 L 23.890625 -3.09375 L 23.78125 -3.09375 C 21.4375 -0.5 18.453125 0.796875 14.828125 0.796875 C 10.878906 0.796875 7.625 -0.597656 5.0625 -3.390625 Z M 13.078125 -18.28125 C 11.859375 -17.070312 11.25 -15.523438 11.25 -13.640625 C 11.25 -11.765625 11.832031 -10.226562 13 -9.03125 C 14.175781 -7.84375 15.722656 -7.25 17.640625 -7.25 C 19.492188 -7.25 21.015625 -7.851562 22.203125 -9.0625 C 23.390625 -10.269531 23.984375 -11.796875 23.984375 -13.640625 C 23.984375 -15.523438 23.367188 -17.070312 22.140625 -18.28125 C 20.921875 -19.488281 19.421875 -20.09375 17.640625 -20.09375 C 15.828125 -20.09375 14.304688 -19.488281 13.078125 -18.28125 Z M 13.078125 -18.28125 "/></g></g></g><g fill="#e4e2dd" fill-opacity="1"><g transform="translate(138.725141, 68.273917)"><g><path d="M 4.09375 -42.59375 C 5.195312 -43.695312 6.515625 -44.25 8.046875 -44.25 C 9.578125 -44.25 10.890625 -43.695312 11.984375 -42.59375 C 13.085938 -41.488281 13.640625 -40.171875 13.640625 -38.640625 C 13.640625 -37.117188 13.085938 -35.804688 11.984375 -34.703125 C 10.890625 -33.597656 9.578125 -33.046875 8.046875 -33.046875 C 6.515625 -33.046875 5.195312 -33.597656 4.09375 -34.703125 C 3 -35.804688 2.453125 -37.117188 2.453125 -38.640625 C 2.453125 -40.171875 3 -41.488281 4.09375 -42.59375 Z M 3.203125 -27.34375 L 3.203125 0 L 12.640625 0 L 12.640625 -27.34375 Z M 3.203125 -27.34375 "/></g></g></g><g fill="#e4e2dd" fill-opacity="1"><g transform="translate(150.290659, 68.273917)"><g><path d="M 3.203125 0 L 3.203125 -27.34375 L 12.640625 -27.34375 L 12.640625 -23.40625 L 12.734375 -23.40625 C 12.804688 -23.550781 12.921875 -23.726562 13.078125 -23.9375 C 13.242188 -24.144531 13.59375 -24.515625 14.125 -25.046875 C 14.65625 -25.585938 15.222656 -26.070312 15.828125 -26.5 C 16.429688 -26.925781 17.210938 -27.304688 18.171875 -27.640625 C 19.140625 -27.984375 20.117188 -28.15625 21.109375 -28.15625 C 22.140625 -28.15625 23.148438 -28.007812 24.140625 -27.71875 C 25.140625 -27.4375 25.875 -27.15625 26.34375 -26.875 L 27.078125 -26.4375 L 23.140625 -18.453125 C 21.960938 -19.441406 20.328125 -19.9375 18.234375 -19.9375 C 17.097656 -19.9375 16.117188 -19.6875 15.296875 -19.1875 C 14.484375 -18.695312 13.90625 -18.09375 13.5625 -17.375 C 13.226562 -16.664062 12.988281 -16.0625 12.84375 -15.5625 C 12.707031 -15.070312 12.640625 -14.679688 12.640625 -14.390625 L 12.640625 0 Z M 3.203125 0 "/></g></g></g><g fill="#e4e2dd" fill-opacity="1"><g transform="translate(172.303634, 68.273917)"><g><path d="M 31.34375 -23.9375 C 33.90625 -21.125 35.1875 -17.691406 35.1875 -13.640625 C 35.1875 -9.597656 33.90625 -6.179688 31.34375 -3.390625 C 28.789062 -0.597656 25.539062 0.796875 21.59375 0.796875 C 17.96875 0.796875 14.984375 -0.5 12.640625 -3.09375 L 12.53125 -3.09375 L 12.53125 0 L 3.203125 0 L 3.203125 -45.84375 L 12.640625 -45.84375 L 12.640625 -24.734375 C 14.984375 -27.015625 17.96875 -28.15625 21.59375 -28.15625 C 25.539062 -28.15625 28.789062 -26.75 31.34375 -23.9375 Z M 23.390625 -9.03125 C 24.566406 -10.226562 25.15625 -11.765625 25.15625 -13.640625 C 25.15625 -15.523438 24.539062 -17.070312 23.3125 -18.28125 C 22.09375 -19.488281 20.578125 -20.09375 18.765625 -20.09375 C 16.984375 -20.09375 15.476562 -19.488281 14.25 -18.28125 C 13.03125 -17.070312 12.421875 -15.523438 12.421875 -13.640625 C 12.421875 -11.796875 13.015625 -10.269531 14.203125 -9.0625 C 15.398438 -7.851562 16.921875 -7.25 18.765625 -7.25 C 20.679688 -7.25 22.222656 -7.84375 23.390625 -9.03125 Z M 23.390625 -9.03125 "/></g></g></g><g fill="#e4e2dd" fill-opacity="1"><g transform="translate(204.177735, 68.273917)"><g><path d="M 5.0625 -3.390625 C 2.5 -6.179688 1.21875 -9.597656 1.21875 -13.640625 C 1.21875 -17.691406 2.5 -21.125 5.0625 -23.9375 C 7.625 -26.75 10.878906 -28.15625 14.828125 -28.15625 C 18.453125 -28.15625 21.4375 -27.015625 23.78125 -24.734375 L 23.78125 -27.34375 L 33.21875 -27.34375 L 33.21875 0 L 23.890625 0 L 23.890625 -3.09375 L 23.78125 -3.09375 C 21.4375 -0.5 18.453125 0.796875 14.828125 0.796875 C 10.878906 0.796875 7.625 -0.597656 5.0625 -3.390625 Z M 13.078125 -18.28125 C 11.859375 -17.070312 11.25 -15.523438 11.25 -13.640625 C 11.25 -11.765625 11.832031 -10.226562 13 -9.03125 C 14.175781 -7.84375 15.722656 -7.25 17.640625 -7.25 C 19.492188 -7.25 21.015625 -7.851562 22.203125 -9.0625 C 23.390625 -10.269531 23.984375 -11.796875 23.984375 -13.640625 C 23.984375 -15.523438 23.367188 -17.070312 22.140625 -18.28125 C 20.921875 -19.488281 19.421875 -20.09375 17.640625 -20.09375 C 15.828125 -20.09375 14.304688 -19.488281 13.078125 -18.28125 Z M 13.078125 -18.28125 "/></g></g></g><g fill="#e4e2dd" fill-opacity="1"><g transform="translate(236.051836, 68.273917)"><g><path d="M 3.203125 0 L 3.203125 -27.34375 L 12.640625 -27.34375 L 12.640625 -24.46875 L 12.734375 -24.46875 C 15.191406 -26.925781 17.804688 -28.15625 20.578125 -28.15625 C 21.929688 -28.15625 23.273438 -27.972656 24.609375 -27.609375 C 25.941406 -27.253906 27.21875 -26.703125 28.4375 -25.953125 C 29.664062 -25.210938 30.660156 -24.15625 31.421875 -22.78125 C 32.191406 -21.414062 32.578125 -19.828125 32.578125 -18.015625 L 32.578125 0 L 23.140625 0 L 23.140625 -15.453125 C 23.140625 -16.878906 22.6875 -18.125 21.78125 -19.1875 C 20.875 -20.257812 19.691406 -20.796875 18.234375 -20.796875 C 16.804688 -20.796875 15.515625 -20.242188 14.359375 -19.140625 C 13.210938 -18.035156 12.640625 -16.804688 12.640625 -15.453125 L 12.640625 0 Z M 3.203125 0 "/></g></g></g><g fill="#e4e2dd" fill-opacity="1"><g transform="translate(266.753262, 68.273917)"><g><path d="M 34.4375 -27.34375 L 21.4375 -14.28125 L 35.71875 0 L 23.5625 0 L 12.640625 -10.921875 L 12.640625 0 L 3.203125 0 L 3.203125 -45.84375 L 12.640625 -45.84375 L 12.640625 -17.8125 L 22.171875 -27.34375 Z M 34.4375 -27.34375 "/></g></g></g><g fill="#e4e2dd" fill-opacity="1"><g transform="translate(296.655124, 68.273917)"><g><path d="M 15.09375 -28.15625 C 16.65625 -28.15625 18.195312 -27.972656 19.71875 -27.609375 C 21.25 -27.253906 22.390625 -26.898438 23.140625 -26.546875 L 24.25 -26.015625 L 21.171875 -19.828125 C 19.035156 -20.960938 17.007812 -21.53125 15.09375 -21.53125 C 14.019531 -21.53125 13.257812 -21.414062 12.8125 -21.1875 C 12.375 -20.957031 12.15625 -20.523438 12.15625 -19.890625 C 12.15625 -19.742188 12.171875 -19.597656 12.203125 -19.453125 C 12.242188 -19.316406 12.316406 -19.1875 12.421875 -19.0625 C 12.523438 -18.9375 12.617188 -18.828125 12.703125 -18.734375 C 12.796875 -18.648438 12.945312 -18.550781 13.15625 -18.4375 C 13.375 -18.332031 13.546875 -18.253906 13.671875 -18.203125 C 13.796875 -18.148438 14 -18.070312 14.28125 -17.96875 C 14.570312 -17.863281 14.785156 -17.78125 14.921875 -17.71875 C 15.066406 -17.664062 15.304688 -17.585938 15.640625 -17.484375 C 15.984375 -17.378906 16.242188 -17.304688 16.421875 -17.265625 C 17.523438 -16.953125 18.484375 -16.597656 19.296875 -16.203125 C 20.117188 -15.816406 20.984375 -15.285156 21.890625 -14.609375 C 22.796875 -13.929688 23.492188 -13.078125 23.984375 -12.046875 C 24.484375 -11.015625 24.734375 -9.84375 24.734375 -8.53125 C 24.734375 -2.3125 20.414062 0.796875 11.78125 0.796875 C 9.820312 0.796875 7.960938 0.492188 6.203125 -0.109375 C 4.453125 -0.710938 3.1875 -1.316406 2.40625 -1.921875 L 1.21875 -2.875 L 5.0625 -9.328125 C 5.34375 -9.078125 5.710938 -8.78125 6.171875 -8.4375 C 6.640625 -8.101562 7.476562 -7.644531 8.6875 -7.0625 C 9.894531 -6.476562 10.941406 -6.1875 11.828125 -6.1875 C 13.785156 -6.1875 14.765625 -6.84375 14.765625 -8.15625 C 14.765625 -8.757812 14.515625 -9.226562 14.015625 -9.5625 C 13.523438 -9.90625 12.679688 -10.289062 11.484375 -10.71875 C 10.296875 -11.144531 9.363281 -11.535156 8.6875 -11.890625 C 6.976562 -12.773438 5.625 -13.773438 4.625 -14.890625 C 3.632812 -16.015625 3.140625 -17.503906 3.140625 -19.359375 C 3.140625 -22.128906 4.210938 -24.285156 6.359375 -25.828125 C 8.515625 -27.378906 11.425781 -28.15625 15.09375 -28.15625 Z M 15.09375 -28.15625 "/></g></g></g><path stroke-linecap="butt" transform="matrix(0.746495, 0, 0, 0.746495, 57.844085, 88.23206)" fill="none" stroke-linejoin="miter" d="M -0.000449223 5.000412 L 84.430553 5.000412 " stroke="#e4e2dd" stroke-width="10" stroke-opacity="1" stroke-miterlimit="4"/><path stroke-linecap="butt" transform="matrix(0, 0.746495, -0.746495, 0, 65.305214, 31.902831)" fill="none" stroke-linejoin="miter" d="M -0.000653199 4.998015 L 82.462821 4.998015 " stroke="#e4e2dd" stroke-width="10" stroke-opacity="1" stroke-miterlimit="4"/><path stroke-linecap="butt" transform="matrix(-0.746495, 0, 0, -0.746495, 356.433807, 7.457298)" fill="none" stroke-linejoin="miter" d="M 0.000286292 4.997668 L 84.431288 4.997668 " stroke="#e4e2dd" stroke-width="10" stroke-opacity="1" stroke-miterlimit="4"/><path stroke-linecap="butt" transform="matrix(0, -0.746495, 0.746495, 0, 348.972674, 63.786526)" fill="none" stroke-linejoin="miter" d="M 0.00183449 5.002519 L 82.465309 5.002519 " stroke="#e4e2dd" stroke-width="10" stroke-opacity="1" stroke-miterlimit="4"/></svg>